<svg width="246" height="227" viewBox="0 0 246 227" fill="none" xmlns="http://www.w3.org/2000/svg">
<path d="M107.07 226.28C166.203 226.28 214.14 178.343 214.14 119.21C214.14 60.0769 166.203 12.14 107.07 12.14C47.9369 12.14 0 60.0769 0 119.21C0 178.343 47.9369 226.28 107.07 226.28Z" fill="#F3F3F3"/>
<path opacity="0.47" d="M202.52 113.93C226.29 113.93 245.56 94.6603 245.56 70.89C245.56 47.1197 226.29 27.85 202.52 27.85C178.75 27.85 159.48 47.1197 159.48 70.89C159.48 94.6603 178.75 113.93 202.52 113.93Z" fill="#FFD166"/>
<path opacity="0.57" d="M199.59 43.1C210.155 43.1 218.72 34.5352 218.72 23.97C218.72 13.4048 210.155 4.84 199.59 4.84C189.025 4.84 180.46 13.4048 180.46 23.97C180.46 34.5352 189.025 43.1 199.59 43.1Z" fill="#D64550"/>
<path opacity="0.37" d="M159.48 55.7C174.861 55.7 187.33 43.2311 187.33 27.85C187.33 12.4689 174.861 0 159.48 0C144.099 0 131.63 12.4689 131.63 27.85C131.63 43.2311 144.099 55.7 159.48 55.7Z" fill="#329F5B"/>
<path d="M73.57 129.89H53.82C52.95 129.89 52.18 130.44 51.91 131.26L48.55 141.25C48.27 142.07 47.5 142.62 46.64 142.62H37.41C36.01 142.62 35.04 141.24 35.51 139.92L56.19 81.98C56.48 81.18 57.24 80.64 58.09 80.64H69.86C70.72 80.64 71.48 81.18 71.77 81.99C75.03 91.39 94.18 146.5 93.25 142.62C92.24 138.38 79.63 142.56 79.21 142.62C78.19 142.77 76.33 134.9 75.56 131.46C75.35 130.54 74.54 129.88 73.59 129.88L73.57 129.89ZM70.75 116.58L65.74 100.79C65.15 98.92 62.51 98.91 61.9 100.77L56.73 116.56C56.3 117.86 57.27 119.21 58.65 119.21H68.83C70.2 119.21 71.17 117.88 70.75 116.58V116.58Z" fill="#329F5B"/>
<path d="M103.22 107.12H77.3197C75.1934 107.12 73.4697 108.844 73.4697 110.97V112.52C73.4697 114.646 75.1934 116.37 77.3197 116.37H103.22C105.346 116.37 107.07 114.646 107.07 112.52V110.97C107.07 108.844 105.346 107.12 103.22 107.12Z" fill="#329F5B"/>
<path d="M156.5 147.2C150.91 147.2 146.24 145.12 144.15 141.12C143.05 139.01 144.7 136.5 147.08 136.5H149.53C150.8 136.5 151.9 137.26 152.48 138.39C153.19 139.77 154.54 140.44 156.25 140.44C158.72 140.44 160.29 139.21 160.29 137.18C160.29 130.77 142.98 134.22 143.08 121.94C143.08 115.38 148.46 111.73 155.7 111.73C161.15 111.73 165.32 113.69 167.34 117.26C168.56 119.41 166.98 122.08 164.51 122.08H161.71C160.66 122.08 159.63 121.54 159.18 120.59C158.57 119.28 157.25 118.52 155.55 118.48C153.53 118.43 152 119.47 152 121.64C152 127.66 169.11 124.94 169.11 136.53C169.11 142.35 164.57 147.18 156.49 147.18L156.5 147.2Z" fill="#329F5B"/>
<path d="M141.678 136.65L121.843 121.73C120.351 120.608 118.232 120.908 117.11 122.4L115.246 124.877C114.124 126.369 114.424 128.488 115.916 129.61L135.751 144.53C137.243 145.652 139.362 145.352 140.484 143.861L142.347 141.383C143.469 139.891 143.17 137.772 141.678 136.65Z" fill="#329F5B"/>
<path d="M111.4 84.51V141.6C111.4 143.726 113.124 145.45 115.25 145.45H118.8C120.926 145.45 122.65 143.726 122.65 141.6V84.51C122.65 82.3837 120.926 80.66 118.8 80.66H115.25C113.124 80.66 111.4 82.3837 111.4 84.51Z" fill="#329F5B"/>
<path d="M133.948 112.936L120.836 120.506C119.22 121.439 118.666 123.506 119.599 125.123L121.149 127.808C122.083 129.424 124.15 129.978 125.766 129.045L138.878 121.475C140.495 120.542 141.048 118.474 140.115 116.858L138.565 114.173C137.632 112.556 135.565 112.003 133.948 112.936Z" fill="#329F5B"/>
<path d="M103.22 121.84H80.7699C78.6436 121.84 76.9199 123.564 76.9199 125.69V127.24C76.9199 129.366 78.6436 131.09 80.7699 131.09H103.22C105.346 131.09 107.07 129.366 107.07 127.24V125.69C107.07 123.564 105.346 121.84 103.22 121.84Z" fill="#329F5B"/>
<path d="M103.22 136.2H82.4398C80.3136 136.2 78.5898 137.924 78.5898 140.05V141.6C78.5898 143.726 80.3136 145.45 82.4398 145.45H103.22C105.346 145.45 107.07 143.726 107.07 141.6V140.05C107.07 137.924 105.346 136.2 103.22 136.2Z" fill="#329F5B"/>
</svg>
